<svg width="75" height="46" viewBox="0 0 75 46" fill="none" xmlns="http://www.w3.org/2000/svg">
<path d="M43.6986 45.0236C41.1697 45.0305 38.6659 44.5226 36.3397 43.5307C35.0949 43.0589 33.9822 42.294 33.0956 41.3011C32.4375 40.3887 32.0131 39.3289 31.8596 38.2145C31.7061 37.1 31.8282 35.9649 32.2152 34.9086H31.9281C29.9071 35.1491 27.8578 34.9232 25.9376 34.2484C25.3443 34.5737 24.7606 34.8608 24.2056 35.1192C24.6218 35.5947 24.9844 36.1146 25.2869 36.6694C25.5831 37.0899 25.7734 37.5757 25.8417 38.0855C25.91 38.5953 25.8543 39.1141 25.6793 39.5977C25.4349 40.1171 25.034 40.5469 24.5328 40.8266C24.0316 41.1064 23.4553 41.2221 22.885 41.1575C20.684 41.081 17.6505 39.3776 15.928 37.6934L14.9232 37.7891C11.9508 38.0587 8.9701 37.3713 6.41595 35.8273C4.79959 34.7142 3.44751 33.2596 2.45534 31.5663C1.46318 29.873 0.855161 27.9824 0.674271 26.0282C0.352403 22.1545 1.13549 18.269 2.93266 14.8224C3.43005 13.8096 3.98933 12.8285 4.60732 11.8845C3.76371 11.894 2.92025 11.8557 2.08098 11.7697C1.79757 11.7722 1.51782 11.7056 1.26601 11.5755C1.0142 11.4454 0.797929 11.2559 0.635985 11.0233C0.272345 10.3151 0.741249 9.49216 1.83217 8.92756C5.31449 7.11722 8.90323 5.51939 12.5787 4.14283C13.1529 3.78876 13.7462 3.47296 14.349 3.18588C16.8509 1.96082 19.5766 1.25935 22.3591 1.12443C25.1415 0.989499 27.9223 1.42395 30.531 2.40118C30.9808 2.583 31.4114 2.77439 31.842 2.99449C34.202 2.31021 36.611 1.80794 39.0478 1.49209C45.1723 0.57799 51.4138 0.81817 57.4499 2.20023C63.7179 3.75048 67.0193 6.44907 67.4787 10.4395C67.871 13.6836 66.2347 16.1812 64.0911 18.2482C64.8011 19.2511 65.4101 20.3217 65.9093 21.4444C66.4595 21.5512 66.9979 21.7115 67.517 21.9229C70.0095 22.9744 72.0219 24.9152 73.1629 27.3679C74.2634 29.6742 74.7993 33.1096 72.9907 35.7699C71.6813 37.5029 69.8333 38.7517 67.7371 39.3202C65.4239 40.1073 62.9937 40.4956 60.5504 40.4685C59.0094 40.504 57.4818 40.1762 56.091 39.5116C55.1211 38.9577 54.2931 38.1863 53.672 37.2581C53.051 36.3298 52.6539 35.27 52.512 34.1622C52.1956 34.8185 51.7756 35.4195 51.268 35.9422C52.0859 36.4086 52.7326 37.1251 53.1133 37.9863C53.4939 38.8475 53.5884 39.808 53.3829 40.7269C52.914 42.2293 51.469 43.4063 49.1723 44.1145C47.4038 44.691 45.5585 44.9975 43.6986 45.0236ZM33.0573 34.813C32.397 36.7938 32.3109 39.1001 33.6985 40.813C34.5013 41.7145 35.5135 42.4046 36.6459 42.8226C40.5566 44.4716 44.9222 44.6952 48.9809 43.4542C50.3972 43.014 52.1867 42.1527 52.6843 40.5833C52.8569 39.7933 52.7626 38.9684 52.4163 38.2377C52.07 37.507 51.4911 36.9117 50.7704 36.545C49.0094 38.1787 46.8059 39.2571 44.4354 39.6455C44.1541 39.7203 43.8601 39.7342 43.5729 39.6863C43.2858 39.6385 43.0122 39.53 42.7703 39.368C42.5019 39.1034 42.337 38.7515 42.3054 38.376C42.2739 38.0004 42.3777 37.6259 42.5981 37.3202C42.9859 36.8113 43.5102 36.423 44.1101 36.2005C46.0371 35.1743 48.2857 34.9309 50.3876 35.5211L50.6269 35.6168L50.7608 35.4733C51.1843 35.1075 51.5265 34.6571 51.7655 34.1512C52.0045 33.6452 52.1349 33.0948 52.1484 32.5354C52.0527 31.1574 50.8182 30.2196 49.5072 29.6646C49.4594 29.7794 49.4116 29.8943 49.3541 30.0091C48.2824 32.2483 46.2058 34.1527 43.1627 35.6742C42.2079 36.2235 41.1416 36.5506 40.043 36.6312C39.4612 36.65 38.8855 36.5081 38.379 36.2211C37.8726 35.9341 37.455 35.5131 37.1722 35.0044C37.0238 34.7061 36.9391 34.3802 36.9234 34.0474C35.6537 34.3905 34.362 34.6463 33.0573 34.813ZM16.9232 37.569C18.5213 38.9565 21.0094 40.3537 22.9137 40.4398C23.3317 40.5007 23.7582 40.4256 24.1303 40.2258C24.5025 40.0259 24.8006 39.7118 24.9807 39.3298C25.0888 38.9543 25.1122 38.5596 25.0493 38.1741C24.9864 37.7885 24.8388 37.4217 24.6171 37.1001C24.2947 36.527 23.9061 35.9938 23.4592 35.5115L23.3443 35.5689C21.2903 36.4866 19.135 37.1579 16.9232 37.569ZM63.5552 18.7937C62.7035 19.5879 61.7848 20.3248 60.9045 21.0329C60.0241 21.7411 59.2585 22.3631 58.5408 23.0234C55.67 25.6741 53.9666 28.2292 53.3829 30.8416C52.7704 33.6072 53.6508 37.3584 56.4929 38.8608C57.7733 39.469 59.1819 39.7579 60.5983 39.703C62.9541 39.7412 65.2985 39.3688 67.5265 38.6025C69.4606 38.0818 71.1691 36.9383 72.3878 35.3489C74.0146 32.9373 73.517 29.8177 72.5026 27.6933C71.4506 25.4118 69.5836 23.6062 67.2682 22.631C66.9572 22.5002 66.6375 22.3915 66.3112 22.3057C66.4548 22.7172 66.5887 23.1191 66.694 23.5306C67.3798 25.7453 67.2055 28.1372 66.206 30.2292C65.6727 31.2919 64.8177 32.1591 63.7626 32.7072C62.7075 33.2554 61.5064 33.4565 60.3303 33.2818C59.1808 32.9851 58.1635 32.3124 57.4404 31.3708C56.7173 30.4292 56.3299 29.2728 56.3398 28.0856C56.3784 26.9158 56.714 25.7749 57.315 24.7705C57.916 23.766 58.7626 22.931 59.7753 22.344C61.3651 21.4182 63.2095 21.0258 65.0385 21.2243C64.6104 20.3755 64.1143 19.5626 63.5552 18.7937ZM48.2441 35.9517C46.916 36.0044 45.6129 36.3301 44.4163 36.9087C43.9548 37.0774 43.5479 37.3685 43.2392 37.7508C43.1219 37.8956 43.0579 38.0764 43.0579 38.2628C43.0579 38.4491 43.1219 38.6299 43.2392 38.7747C43.5607 38.9419 43.9339 38.9796 44.2823 38.88C46.3861 38.5283 48.3526 37.6046 49.9666 36.2101C49.4162 36.0338 48.8411 35.9466 48.2632 35.9517H48.2441ZM2.03313 19.4444C1.43803 21.5653 1.24331 23.7785 1.45896 25.9708C1.62315 27.8081 2.18807 29.5871 3.11393 31.1826C4.03979 32.778 5.3041 34.1512 6.81786 35.2053C9.22906 36.6599 12.0428 37.3038 14.8466 37.0427H15.2581C15.0186 36.7515 14.8191 36.4297 14.6648 36.0857C14.2688 34.9038 14.1413 33.6484 14.2916 32.411H13.794L12.8849 32.3345C10.2724 32.1048 6.99968 31.5498 4.86569 29.2722C4.79494 29.1991 4.7554 29.1013 4.7554 28.9995C4.7554 28.8977 4.79494 28.7999 4.86569 28.7268C4.9013 28.6906 4.94377 28.6619 4.99059 28.6423C5.03741 28.6227 5.08766 28.6126 5.13842 28.6126C5.18918 28.6126 5.23944 28.6227 5.28626 28.6423C5.33308 28.6619 5.37553 28.6906 5.41115 28.7268C7.32504 30.8129 10.4543 31.3297 12.9328 31.5402L13.8323 31.6168L14.3395 31.6646C14.3395 31.5785 14.3395 31.4924 14.3395 31.4158L14.3873 30.9278C14.4447 30.2866 14.483 29.6359 14.5117 29.0139C13.3333 28.9016 12.2338 28.3722 11.4112 27.521C10.1959 26.1909 9.86095 24.1526 10.4064 21.4636C10.5883 20.5698 10.8444 19.6927 11.172 18.8415C10.325 19.3391 9.44947 19.7865 8.54993 20.1812C7.25377 20.8353 5.80794 21.1357 4.35851 21.0521C3.94492 21.0223 3.54195 20.9074 3.17476 20.7148C2.80758 20.5221 2.48409 20.2558 2.22452 19.9324C2.14919 19.7766 2.09143 19.613 2.05228 19.4444H2.03313ZM15.0667 32.4397C14.9265 33.557 15.0377 34.6915 15.3921 35.7603C15.5899 36.1849 15.8622 36.5705 16.1959 36.8991C18.4837 36.5272 20.7131 35.8581 22.8276 34.9086C20.7606 33.1383 17.9471 32.7173 15.0859 32.4397H15.0667ZM37.5646 33.856C37.564 34.1384 37.6295 34.4169 37.7559 34.6694C37.9886 35.0475 38.3178 35.3568 38.7097 35.5653C39.1016 35.7739 39.5421 35.8743 39.9856 35.856C40.959 35.7862 41.9041 35.4984 42.7512 35.0139C45.622 33.5689 47.6029 31.7794 48.5981 29.7029L48.713 29.4541L48.4546 29.3871L47.756 29.2531C45.501 30.7122 43.0906 31.9158 40.5694 32.8417C39.555 33.234 38.5598 33.5689 37.5837 33.856H37.5646ZM15.1337 31.6646C18.2629 31.9517 21.3539 32.4397 23.6218 34.5354C24.0812 34.3249 24.5788 34.0952 25.0477 33.8369L24.8754 33.7316C23.6314 32.9756 22.5309 31.4445 23.086 29.9038C23.3295 29.2769 23.7086 28.7116 24.196 28.2483C26.3339 26.1868 28.8529 24.5616 31.6123 23.4636V23.3009C31.5346 22.8716 31.4226 22.4492 31.2774 22.0377C29.9975 22.8794 28.5194 23.3711 26.9903 23.4636C26.5163 23.4611 26.0442 23.4033 25.5836 23.2913C23.1912 25.789 20.4543 28.2005 16.9711 28.8608C16.4544 28.9637 15.9284 29.0118 15.4017 29.0043C15.4017 29.655 15.3347 30.3057 15.2773 30.9182L15.2294 31.4062L15.1337 31.6646ZM26.7893 33.7699C28.4351 34.2102 30.148 34.3432 31.842 34.1622L32.464 34.1048C32.68 33.5433 32.9391 32.9994 33.2392 32.478C34.0389 31.1672 34.9379 29.9195 35.9282 28.7459C36.8614 27.6436 37.7152 26.4763 38.4832 25.2531C39.152 24.1185 39.6639 22.8984 40.0048 21.6262C38.9808 21.8368 37.9856 22.1143 37.1339 22.3631H36.9521C35.4375 22.7798 33.9485 23.2846 32.4927 23.8751C32.5842 25.2817 32.3756 26.6917 31.8806 28.0116C31.3857 29.3315 30.6158 30.531 29.6219 31.5306C28.7776 32.3875 27.833 33.1394 26.8085 33.7699H26.7893ZM40.8469 21.4636C40.4905 22.9346 39.9164 24.3441 39.1435 25.6454C38.3635 26.9052 37.4903 28.1047 36.531 29.234C35.569 30.3767 34.6926 31.589 33.909 32.8608C33.6999 33.2264 33.5114 33.6034 33.3444 33.99C34.5361 33.8162 35.7155 33.5669 36.8755 33.2436C37.2795 31.9385 38.1659 30.8365 39.354 30.1622C41.8142 28.6592 44.7176 28.0508 47.5742 28.4397C48.1579 28.0473 48.713 27.6359 49.2297 27.2148C49.329 26.3539 49.221 25.4817 48.9147 24.671C48.6084 23.8603 48.1127 23.1347 47.469 22.5545C45.7082 21.0808 43.2488 21.0616 40.866 21.4636H40.8469ZM31.6889 24.2387C29.122 25.3076 26.7808 26.8532 24.7893 28.7938C24.3795 29.1792 24.0538 29.645 23.8324 30.1622C23.4496 31.2723 24.2726 32.478 25.2965 33.1C25.488 33.2166 25.6861 33.3221 25.8898 33.4158C27.0547 32.762 28.1238 31.9505 29.0669 31.0043C29.9429 30.1147 30.6288 29.0561 31.0829 27.893C31.5369 26.7299 31.7496 25.4866 31.708 24.2387H31.6889ZM45.8804 29.1C43.7224 29.1004 41.6064 29.6964 39.7655 30.8225C38.902 31.3357 38.2044 32.0864 37.7559 32.9852C38.5789 32.7364 39.4306 32.4493 40.2918 32.1144C42.462 31.3163 44.5512 30.3134 46.5311 29.1191L45.8804 29.1ZM64.1198 22.0473C62.7366 22.0529 61.3807 22.4332 60.1963 23.1478C59.3027 23.6603 58.5533 24.3906 58.0178 25.2707C57.4824 26.1508 57.1784 27.1521 57.1341 28.1813C57.1235 29.1891 57.4489 30.1717 58.0589 30.974C58.6688 31.7763 59.5287 32.3526 60.5026 32.612C61.516 32.7422 62.5448 32.5554 63.4478 32.0774C64.3508 31.5993 65.0836 30.8534 65.5457 29.9421C66.4544 28.0169 66.6047 25.82 65.9667 23.7889C65.8194 23.2419 65.6372 22.705 65.4212 22.1813C64.9982 22.1014 64.5693 22.0566 64.1389 22.0473H64.1198ZM49.7082 28.966C50.8794 29.3605 51.8728 30.1572 52.512 31.2148C52.512 31.033 52.5695 30.8512 52.6077 30.6694C53.2298 27.9038 54.9905 25.2148 58.0049 22.4492C58.7322 21.7794 59.5456 21.1286 60.3973 20.4301C61.249 19.7315 62.2346 18.9468 63.0863 18.1717C62.5376 17.4422 61.9465 16.7456 61.316 16.0855C56.6174 11.119 48.5694 7.21463 41.2201 9.69312C40.7897 9.83068 40.368 9.99364 39.9569 10.1812C43.6927 10.3774 47.3624 11.2462 50.7896 12.7458C52.4874 13.363 53.9339 14.5236 54.9044 16.0472C55.9858 18.0951 55.5169 20.9372 53.6412 23.6454C52.6173 25.1213 51.3971 26.4509 50.0144 27.5976C49.9612 28.0616 49.8651 28.5197 49.7273 28.966H49.7082ZM48.646 28.6407L48.9713 28.7172C48.9713 28.5928 49.0383 28.4588 49.067 28.3249L48.646 28.6407ZM15.3443 28.2005C15.8159 28.2005 16.2867 28.1589 16.751 28.0761C19.9472 27.4732 22.4927 25.2914 24.751 22.9755C24.2486 22.7478 23.7965 22.4226 23.4209 22.0186C22.8005 21.2751 22.4097 20.3673 22.2958 19.4057C22.182 18.444 22.3501 17.4701 22.7797 16.6023C23.1285 15.8611 23.601 15.1848 24.1769 14.6023C22.1392 13.4696 19.77 13.0838 17.4782 13.5113C16.3805 14.7718 15.1626 15.9224 13.8418 16.9468C14.192 17.8404 14.4517 18.7669 14.617 19.7123C15.1719 22.5064 15.4222 25.3524 15.3634 28.2005H15.3443ZM12.349 18.0185C11.8248 19.1357 11.436 20.3115 11.1911 21.521C10.7031 23.9516 10.971 25.7602 12.0141 26.899C12.691 27.5986 13.5917 28.0388 14.5596 28.143C14.6191 25.3669 14.385 22.5923 13.861 19.8655C13.7119 19.0376 13.491 18.2243 13.2007 17.4348C12.9519 17.6358 12.6648 17.8367 12.349 18.0185ZM43.2584 20.4588C44.9535 20.3845 46.6195 20.9172 47.957 21.9612C48.6019 22.5364 49.1184 23.241 49.4729 24.0291C49.8274 24.8172 50.0119 25.6712 50.0144 26.5354C51.1302 25.5481 52.1231 24.43 52.9714 23.2052C54.6748 20.7363 55.1245 18.2004 54.1771 16.4013C53.2806 15.0409 51.968 14.0069 50.4355 13.4539C47.0537 11.9776 43.4319 11.1281 39.7464 10.9467C40.3186 12.1101 40.7399 13.3417 41 14.6118C41.3923 16.6055 41.3923 18.6565 41 20.6502C41.7562 20.527 42.5209 20.463 43.2871 20.4588H43.2584ZM31.909 21.5975C32.094 22.0946 32.2349 22.6069 32.3301 23.1286C33.755 22.5565 35.212 22.0676 36.6937 21.6645H36.8755C37.8899 21.387 39.0287 21.0712 40.1962 20.8415C40.9359 17.4928 40.4646 13.9903 38.866 10.9563H38.4545C37.4975 11.4908 36.5854 12.102 35.7272 12.7841C33.6553 14.4913 31.7343 16.3739 29.9855 18.4109C30.6179 19.1822 31.1545 20.0273 31.5836 20.9277C33.6018 19.7288 35.1613 17.8897 36.0143 15.7027C36.051 15.6069 36.123 15.5286 36.2155 15.4842C36.308 15.4397 36.4141 15.4323 36.5119 15.4635C36.5598 15.4797 36.604 15.5051 36.642 15.5385C36.6799 15.5718 36.7109 15.6123 36.7332 15.6577C36.7554 15.7031 36.7685 15.7524 36.7715 15.8028C36.7746 15.8533 36.7677 15.9038 36.7511 15.9515C35.8333 18.3137 34.1481 20.2987 31.9664 21.588L31.909 21.5975ZM26.1673 22.6023C26.4244 22.6364 26.6832 22.6556 26.9424 22.6597C28.3721 22.5593 29.7508 22.0876 30.9425 21.2913C30.5526 20.4526 30.0609 19.6652 29.4783 18.9468L29.2391 19.2243C28.5788 19.9516 27.9281 20.6884 27.2678 21.4061L27.0381 21.6645L26.1673 22.6023ZM24.885 14.9468C24.302 15.4924 23.8251 16.1413 23.4783 16.8606C23.1102 17.5863 22.9612 18.4033 23.0495 19.2122C23.1379 20.021 23.4598 20.7867 23.9759 21.4157C24.3489 21.8083 24.8073 22.1095 25.3156 22.2961C25.708 21.8846 26.0908 21.4636 26.464 21.0616L26.6936 20.8033C27.3539 20.0856 28.0047 19.3583 28.6075 18.631L28.9329 18.2674C28.305 17.58 27.6269 16.9403 26.9042 16.3535C26.2773 15.8491 25.6118 15.3947 24.9137 14.9946L24.885 14.9468ZM8.99014 14.1333C7.21766 14.2039 5.51146 14.8262 4.1097 15.9133C3.15276 16.6693 2.09055 18.2387 2.88481 19.3391C3.08361 19.5704 3.32646 19.7597 3.59919 19.896C3.87193 20.0324 4.1691 20.1131 4.47335 20.1334C5.7976 20.2045 7.11736 19.9274 8.30113 19.3296C9.51626 18.7891 10.6845 18.149 11.794 17.4157C12.0293 16.9462 12.2946 16.4923 12.5882 16.0568C12.1579 15.3324 11.5123 14.7604 10.7413 14.4204C10.1886 14.2277 9.60318 14.1464 9.01884 14.1812L8.99014 14.1333ZM25.4975 14.4109C26.1679 14.8163 26.8076 15.2704 27.4114 15.7697C28.1402 16.3563 28.8247 16.996 29.4592 17.6836C31.2063 15.6421 33.1274 13.7562 35.2009 12.0472C35.7559 11.607 36.3205 11.2051 36.8851 10.8415C33.4332 10.8508 30.0361 11.7051 26.9903 13.3295C26.4725 13.6657 25.9828 14.0433 25.5262 14.4587L25.4975 14.4109ZM45.9378 8.10458C52.0623 8.10458 58.0432 11.4635 61.871 15.5018C62.4963 16.1631 63.0872 16.8562 63.6413 17.5784C65.6318 15.6645 67.0672 13.3965 66.7227 10.4969C66.2825 6.86055 63.1916 4.38206 57.2777 2.90836C51.3318 1.55203 45.1848 1.31835 39.1531 2.21936C37.0187 2.49823 34.9054 2.92023 32.8277 3.48253C35.4312 5.00143 37.6049 7.15861 39.1435 9.75053C39.7467 9.46182 40.3667 9.20937 41 8.99454C42.5992 8.44743 44.2764 8.16304 45.9665 8.15243L45.9378 8.10458ZM13.4782 16.1334C14.3065 15.4889 15.0898 14.7887 15.8227 14.0377C14.9113 14.5849 14.1229 15.3147 13.5069 16.1812L13.4782 16.1334ZM9.00926 13.3678C9.69408 13.3584 10.3739 13.4853 11.0093 13.741C11.838 14.0969 12.546 14.6852 13.0476 15.4348C13.7438 14.582 14.6025 13.8762 15.5739 13.3582C16.0456 13.1127 16.5431 12.9201 17.0572 12.7841C17.7936 11.9112 18.4713 10.9905 19.0859 10.028C19.4813 9.4007 19.8024 8.72952 20.0429 8.02803L18.0237 8.81272C14.061 10.4664 9.86301 11.4869 5.5834 11.8367C4.86238 12.8902 4.22257 13.9971 3.6695 15.1477L3.55467 15.3869L3.65994 15.3008C5.21153 14.1258 7.09232 13.4665 9.03797 13.4156L9.00926 13.3678ZM19.2199 12.497C21.1628 12.5517 23.0649 13.0666 24.7702 13.9994C25.3684 13.507 26.0088 13.0683 26.6841 12.6884C29.8647 10.9905 33.4137 10.0999 37.0191 10.095C37.4497 10.095 37.8708 10.095 38.3014 10.095L38.4258 10.028C36.8218 7.39137 34.5333 5.23853 31.8037 3.79832C28.196 4.85097 24.7223 6.2194 21.1242 7.62611L20.9807 7.68352C20.7291 8.6623 20.3255 9.59553 19.7845 10.4491C19.3156 11.1764 18.8275 11.8845 18.2821 12.564C18.6036 12.5389 18.9263 12.5325 19.2486 12.5448L19.2199 12.497ZM9.86095 6.01844C7.25805 7.09979 4.69344 8.29598 2.20538 9.58785C1.75561 9.82709 1.15275 10.296 1.33457 10.6501C1.51639 11.0041 1.87045 10.9467 2.1671 10.985C3.15929 11.0803 4.15674 11.1091 5.15277 11.0711C6.50038 9.19816 8.0936 7.51481 9.88965 6.06629L9.86095 6.01844ZM12.9232 4.81268C10.2834 6.42397 7.98232 8.53334 6.148 11.0233C10.1367 10.6152 14.0442 9.62546 17.7462 8.08545L20.263 7.1285C20.3741 6.6436 20.3537 6.13782 20.204 5.66342C20.0543 5.18901 19.7806 4.76319 19.4113 4.42991C17.9759 3.20502 15.5835 3.85574 13.9567 4.42991L12.9232 4.81268ZM17.2677 2.89879C18.2289 2.86072 19.1711 3.17366 19.9185 3.77919C20.3405 4.14035 20.6669 4.6 20.8689 5.11745C21.0709 5.63489 21.1421 6.19416 21.0764 6.74572C24.3204 5.46341 27.4783 4.23852 30.732 3.24329L30.2535 3.05191C25.9464 1.41518 21.1974 1.36429 16.8562 2.90836L17.2677 2.89879Z" fill="#263238"/>
</svg>
