<svg width="48" height="48" viewBox="0 0 48 48" fill="none" xmlns="http://www.w3.org/2000/svg">
<circle cx="24" cy="24" r="24" fill="#F1FEF2"/>
<path d="M34.4497 17.6238C34.4196 16.9614 34.4196 16.3291 34.4196 15.6968C34.4196 15.1849 34.0282 14.7935 33.5163 14.7935C29.7527 14.7935 26.8924 13.7096 24.5138 11.3912C24.1525 11.06 23.6105 11.06 23.2492 11.3912C20.8706 13.7096 18.0102 14.7935 14.2466 14.7935C13.7348 14.7935 13.3434 15.1849 13.3434 15.6968C13.3434 16.3291 13.3434 16.9614 13.3133 17.6238C13.1928 23.9466 13.0122 32.618 23.5804 36.2612L23.8815 36.3214L24.1826 36.2612C34.7207 32.618 34.5701 23.9767 34.4497 17.6238ZM23.1589 26.3855C22.9782 26.536 22.7675 26.6263 22.5266 26.6263H22.4965C22.2556 26.6263 22.0147 26.5059 21.8642 26.3252L19.0641 23.224L20.419 22.0197L22.6169 24.4585L27.4946 19.8217L28.729 21.1465L23.1589 26.3855Z" fill="#4E7E76"/>
</svg>
